<svg xmlns="http://www.w3.org/2000/svg" width="255" height="155">
    <path fill="#FFF" fill-rule="evenodd" d="M201.16 155l-5.74-.78c-22.07-3-39.12-18.57-44.3-40.43-1-4.16-1-4.16-5.28-4.16h-13.16L159 73.79l26.59 35.75H168.7a30.73 30.73 0 0 0 6.77 14A32.77 32.77 0 0 0 198.4 136c20.9 1.91 36.09-13.29 37.67-30.66 1.06-11.54-2.74-21.45-11.52-29.17-8.78-7.72-19-9.78-30.41-7.7 1.85-11-1.09-20-10.58-25.93s-18.9-4.72-27.78 1.69C143 23.22 125 14.51 101 21.49 85.78 25.9 73.47 39.29 70.6 58c-2.56-.68-5.08-1.55-7.67-2-19.972-3.882-39.339 9.062-43.39 29-4.43 22 10.4 40.73 30.23 44.33 1.7.302 3.424.449 5.15.44h93.75a3.16 3.16 0 0 1 3.2 1.76 55 55 0 0 0 14.29 16.43c.27.184.55.351.84.5l-.24.42h-1.61c-35.88 0-71.76.22-107.65-.07-23.35-.2-40.86-10.81-51.84-31.6A47.53 47.53 0 0 1 0 95.45v-5.84a37.2 37.2 0 0 1 .47-5.49c3.58-19.93 14.45-34.35 32.84-42.9A51.13 51.13 0 0 1 58 36.54c1.28.07 1.74-.62 2.25-1.57C71.52 14.06 88.86 2.54 112.68 1c.71 0 4.82-.06 5.52 0 1.94.19 3.9.18 5.82.47a61.26 61.26 0 0 1 36.19 19 2.41 2.41 0 0 0 2.62.8 37.39 37.39 0 0 1 14.6-.42c16.08 2.83 26.85 12.05 32.38 27.34a4.21 4.21 0 0 0 3.54 3.22c21.498 4.643 37.764 22.286 40.65 44.09a74.92 74.92 0 0 1 .36 9.67 46.21 46.21 0 0 1-3.4 16.07c-7.84 18.7-21.75 29.78-41.85 32.94-2 .31-3.93.53-5.89.8l-2.06.02z"/>
</svg>